<svg width="499.99999999999994" height="499.99999999999994" xmlns="http://www.w3.org/2000/svg">

 <g>
  <title>background</title>
  <rect fill="none" id="canvas_background" height="402" width="582" y="-1" x="-1"/>
 </g>
 <g>
  <title>Layer 1</title>
  <path id="svg_1" fill-rule="evenodd" fill="#ffffff" d="m195.448,250.001c0,30.078 24.434,54.513 54.513,54.513c30.078,0 54.513,-24.435 54.513,-54.513l0,-0.453c-5.819,5.905 -13.805,9.539 -22.715,9.539c-17.539,0 -31.798,-14.264 -31.798,-31.799c0,-12.626 7.443,-23.623 18.08,-28.712c-5.631,-1.997 -11.718,-3.087 -18.08,-3.087c-30.079,-0.001 -54.513,24.437 -54.513,54.512zm260.391,-30.984c-33.804,-42.97 -116.113,-114.384 -205.79,-114.384c-89.762,0 -172.162,71.415 -205.967,114.384c-7.63,9.814 -11.809,20.444 -12.083,30.984c0.275,10.541 4.453,21.171 12.083,30.983c33.806,42.979 116.115,114.383 205.879,114.383s172.074,-71.404 205.878,-114.383c7.718,-9.813 11.898,-20.442 12.173,-30.983c-0.275,-10.54 -4.455,-21.17 -12.173,-30.984zm-205.878,121.837c-50.147,0 -90.855,-40.703 -90.855,-90.853c0,-50.151 40.708,-90.855 90.855,-90.855c50.146,0 90.854,40.704 90.854,90.855c-0.001,50.149 -40.709,90.853 -90.854,90.853z" clip-rule="evenodd"/>
 </g>
</svg>